<?xml version="1.0" encoding="UTF-8"?>
<svg width="300px" height="350px" viewBox="0 0 473 399" version="1.1" xmlns="http://www.w3.org/2000/svg" xmlns:xlink="http://www.w3.org/1999/xlink">
    <title>8D7F9D9E-EDF8-4308-81CD-5DE3730A3F3D</title>
    <g id="Mocks---exit-panel" stroke="none" stroke-width="1" fill="none" fill-rule="evenodd">
        <g id="BH-Services-LP-2022--xl" transform="translate(-203.000000, -2816.000000)">
            <g id="PPC-Illustration" transform="translate(205.000000, 2816.000000)">
                <path d="M121.484555,97.3494776 C121.484555,97.3494776 -10.6314829,116.31622 0.687937449,226.816472 C12.0060105,337.315376 126.520498,404.214632 243.729445,396.379341 C360.938391,388.54405 475.452879,276.64984 468.716733,183.629351 C461.980587,90.6088625 360.938391,75.7795093 360.938391,75.7795093 C360.938391,75.7795093 367.77558,104.19255 374.410684,110.830708 C385.188518,121.615692 447.161065,226.769288 281.451864,206.547442 C258.548967,236.206149 191.187503,225.421165 156.159542,205.199319 C57.8118057,224.073042 38.9505959,158.015014 133.256645,130.807195 C197.763329,112.197705 121.484555,97.3494776 121.484555,97.3494776" id="Fill-1" fill="#042134"></path>
                <path d="M121.484555,97.3494776 C121.484555,97.3494776 -10.6314829,116.31622 0.687937449,226.816472 C12.0060105,337.315376 126.520498,404.214632 243.729445,396.379341 C360.938391,388.54405 475.452879,276.64984 468.716733,183.629351 C461.980587,90.6088625 360.938391,75.7795093 360.938391,75.7795093 C360.938391,75.7795093 367.77558,104.19255 374.410684,110.830708 C385.188518,121.615692 447.161065,226.769288 281.451864,206.547442 C258.548967,236.206149 191.187503,225.421165 156.159542,205.199319 C57.8118057,224.073042 38.9505959,158.015014 133.256645,130.807195 C197.763329,112.197705 121.484555,97.3494776 121.484555,97.3494776 Z" id="Stroke-3" stroke="#042134" stroke-width="2.69624604" stroke-linecap="round" stroke-linejoin="round"></path>
                <polygon id="Fill-5" fill="#FFFFFF" points="404.717415 90.6088625 391.924126 82.5201244 374.410145 110.830708 383.211594 121.615692"></polygon>
                <polygon id="Stroke-7" stroke="#042134" stroke-width="2.69624604" stroke-linecap="round" stroke-linejoin="round" points="404.717415 90.6088625 391.924126 82.5201244 374.410145 110.830708 383.211594 121.615692"></polygon>
                <path d="M156.159004,205.199319 L170.978525,199.806827 L269.467721,200.412135 L284.377508,205.199319 C284.377508,205.199319 267.979033,242.946764 222.173238,241.598641 C176.367443,240.250518 156.159004,205.199319 156.159004,205.199319" id="Fill-9" fill="#FFFFFF"></path>
                <path d="M156.159004,205.199319 L170.978525,199.806827 L269.467721,200.412135 L284.377508,205.199319 C284.377508,205.199319 267.979033,242.946764 222.173238,241.598641 C176.367443,240.250518 156.159004,205.199319 156.159004,205.199319 Z" id="Stroke-11" stroke="#042134" stroke-width="2.69624604" stroke-linecap="round" stroke-linejoin="round"></path>
                <polygon id="Fill-13" fill="#FFFFFF" points="121.484555 97.3494776 133.256645 97.3494776 137.298333 129.70443 121.484555 134.02112"></polygon>
                <polygon id="Stroke-15" stroke="#042134" stroke-width="2.69624604" stroke-linecap="round" stroke-linejoin="round" points="121.484555 97.3494776 133.256645 97.3494776 137.298333 129.70443 121.484555 134.02112"></polygon>
                <path d="M269.326262,85.2163704 C269.326262,85.2163704 273.36795,145.881906 238.339989,158.015014 C238.339989,158.015014 235.64553,178.236859 242.381677,187.67372 L269.468353,200.412135 C269.468353,200.412135 257.201199,225.421165 220.826008,226.769288 C184.450818,228.117411 170.978525,199.806827 170.978525,199.806827 L197.923111,190.369966 L210.048174,162.059383 C210.048174,162.059383 179.061901,144.533783 179.061901,114.875077 C179.061901,85.2163704 230.256613,52.8614179 243.728906,60.950156 C257.201199,69.0388941 269.326262,85.2163704 269.326262,85.2163704" id="Fill-17" fill="#FFFFFF"></path>
                <path d="M269.326262,85.2163704 C269.326262,85.2163704 273.36795,145.881906 238.339989,158.015014 C238.339989,158.015014 235.64553,178.236859 242.381677,187.67372 L269.468353,200.412135 C269.468353,200.412135 257.201199,225.421165 220.826008,226.769288 C184.450818,228.117411 170.978525,199.806827 170.978525,199.806827 L197.923111,190.369966 L210.048174,162.059383 C210.048174,162.059383 179.061901,144.533783 179.061901,114.875077 C179.061901,85.2163704 230.256613,52.8614179 243.728906,60.950156 C257.201199,69.0388941 269.326262,85.2163704 269.326262,85.2163704 Z" id="Stroke-19" stroke="#042134" stroke-width="2.69624604" stroke-linecap="round" stroke-linejoin="round"></path>
                <path d="M201.964799,48.8170488 C201.964799,48.8170488 226.214926,32.6395725 219.478779,15.1139732 C212.742633,-2.41162604 184.450818,-6.45599511 156.159004,12.4177272 C127.867189,31.2914495 134.603335,48.8170488 141.339482,54.2095409 C148.075628,59.602033 175.020213,70.3870172 201.964799,48.8170488" id="Fill-21" fill="#042134"></path>
                <path d="M152.983988,144.455323 C152.172956,144.042797 152.255137,142.873974 153.121406,142.593565 C158.08864,140.989298 169.032183,135.395936 166.937242,117.571053 C164.242783,94.652962 161.548325,60.9498864 195.229056,48.8167792 C228.909788,36.683672 249.118227,47.4686562 258.548832,55.5573943 C267.979437,63.6461324 280.1045,82.5198547 273.368354,86.5642238 C266.632208,90.6085929 254.507144,93.3048389 242.382081,71.7348706 C242.382081,71.7348706 247.770998,85.2161008 231.604247,97.349208 C215.437496,109.482315 189.840139,125.659791 187.145681,132.400407 C184.599418,138.770288 182.053154,153.567286 168.137623,158.589044 C167.272702,158.901809 166.488614,157.956775 166.926464,157.147901 C168.816627,153.664351 171.935462,146.408753 170.97893,137.792899 C170.97893,137.792899 166.130251,151.135272 152.983988,144.455323" id="Fill-23" fill="#042134"></path>
                <path d="M254.636074,90.6088625 C254.636074,90.6088625 220.826008,98.6976006 203.312028,100.045724 L203.312028,125.660061 C203.312028,125.660061 241.974814,126.142689 253.629694,131.967929 L254.636074,90.6088625 Z" id="Fill-25" fill="#042134"></path>
                <path d="M303.136328,86.5644934 C303.136328,86.5644934 269.326262,94.6532316 251.812282,96.0013546 L251.812282,121.615692 C251.812282,121.615692 290.475067,122.09832 302.129948,127.92356 L303.136328,86.5644934 Z" id="Fill-27" fill="#042134"></path>
                <path d="M278.756867,111.504769 C278.756867,123.044702 269.407096,132.400676 257.874813,132.400676 C246.342531,132.400676 236.99276,123.044702 236.99276,111.504769 C236.99276,99.9648363 246.342531,90.6088625 257.874813,90.6088625 C269.407096,90.6088625 278.756867,99.9648363 278.756867,111.504769" id="Fill-29" fill="#6FA7FC"></path>
                <path d="M278.756867,111.504769 C278.756867,123.044702 269.407096,132.400676 257.874813,132.400676 C246.342531,132.400676 236.99276,123.044702 236.99276,111.504769 C236.99276,99.9648363 246.342531,90.6088625 257.874813,90.6088625 C269.407096,90.6088625 278.756867,99.9648363 278.756867,111.504769 Z" id="Stroke-31" stroke="#042134" stroke-width="1.34812302"></path>
                <path d="M272.020721,111.504769 C272.020721,119.322535 265.687396,125.660061 257.874813,125.660061 C250.062231,125.660061 243.728906,119.322535 243.728906,111.504769 C243.728906,103.687004 250.062231,97.3494776 257.874813,97.3494776 C265.687396,97.3494776 272.020721,103.687004 272.020721,111.504769" id="Fill-33" fill="#FFFFFF"></path>
                <path d="M323.215433,107.4604 C323.215433,119.000333 313.865662,128.356307 302.333379,128.356307 C290.801097,128.356307 281.451326,119.000333 281.451326,107.4604 C281.451326,95.9204672 290.801097,86.5644934 302.333379,86.5644934 C313.865662,86.5644934 323.215433,95.9204672 323.215433,107.4604" id="Fill-35" fill="#6FA7FC"></path>
                <path d="M323.215433,107.4604 C323.215433,119.000333 313.865662,128.356307 302.333379,128.356307 C290.801097,128.356307 281.451326,119.000333 281.451326,107.4604 C281.451326,95.9204672 290.801097,86.5644934 302.333379,86.5644934 C313.865662,86.5644934 323.215433,95.9204672 323.215433,107.4604 Z" id="Stroke-37" stroke="#042134" stroke-width="1.34812302"></path>
                <path d="M316.479287,107.4604 C316.479287,115.278166 310.145962,121.615692 302.333379,121.615692 C294.520797,121.615692 288.187472,115.278166 288.187472,107.4604 C288.187472,99.6426349 294.520797,93.3051086 302.333379,93.3051086 C310.145962,93.3051086 316.479287,99.6426349 316.479287,107.4604" id="Fill-39" fill="#FFFFFF"></path>
                <path d="M265.070769,110.923054 C265.365812,114.261007 263.238537,117.175649 260.320439,117.43314 C257.40234,117.690632 254.796799,115.195256 254.503103,111.857304 C254.208059,108.519351 256.335334,105.604709 259.253433,105.347217 C262.171532,105.089726 264.775726,107.585102 265.070769,110.923054" id="Fill-41" fill="#042134"></path>
                <path d="M246.91672,113.204483 C246.91672,113.204483 251.326201,106.523185 258.70767,105.870694 C266.08914,105.218202 270.161814,111.149943 270.161814,111.149943 C270.161814,111.149943 265.81161,117.398494 259.771982,117.93235 C253.7337,118.466207 246.91672,113.204483 246.91672,113.204483 Z" id="Stroke-43" stroke="#042134" stroke-width="1.34812302" stroke-linecap="round" stroke-linejoin="round"></path>
                <path d="M309.697065,106.928701 C309.988067,110.230254 307.782652,113.123326 304.770248,113.388906 C301.757843,113.655834 299.079551,111.194162 298.78855,107.892609 C298.497548,104.591055 300.702962,101.699331 303.715367,101.432403 C306.727772,101.166823 309.406063,103.627147 309.697065,106.928701" id="Fill-45" fill="#042134"></path>
                <path d="M290.865764,109.205006 C290.865764,109.205006 295.490802,102.504835 303.191564,101.824033 C310.892327,101.143231 315.118585,107.061491 315.118585,107.061491 C315.118585,107.061491 310.556867,113.328915 304.255875,113.885689 C297.956231,114.442464 290.865764,109.205006 290.865764,109.205006 Z" id="Stroke-47" stroke="#042134" stroke-width="1.34812302" stroke-linecap="round" stroke-linejoin="round"></path>
                <path d="M133.256106,97.3494776 C133.256106,97.3494776 181.75636,97.3494776 192.534194,93.3051086 C203.312028,89.2607395 235.64553,69.0388941 238.339989,73.0832632 C241.034447,77.1276323 212.742633,94.6532316 212.742633,94.6532316 C212.742633,94.6532316 229.271789,81.6034007 238.520518,97.5651773 C238.520518,97.5651773 239.687218,102.74197 234.298301,101.393847 C228.909384,100.045724 207.353716,98.6976006 210.048174,116.2232 C212.742633,133.748799 231.603843,122.963815 234.298301,125.660061 C236.99276,128.356307 231.603843,135.096922 218.13155,136.445045 C204.659257,137.793168 189.839735,128.356307 173.672984,128.356307 C157.506233,128.356307 137.297794,129.70443 137.297794,129.70443 L133.256106,97.3494776 Z" id="Fill-49" fill="#FFFFFF"></path>
                <path d="M133.256106,97.3494776 C133.256106,97.3494776 181.75636,97.3494776 192.534194,93.3051086 C203.312028,89.2607395 235.64553,69.0388941 238.339989,73.0832632 C241.034447,77.1276323 212.742633,94.6532316 212.742633,94.6532316 C212.742633,94.6532316 229.271789,81.6034007 238.520518,97.5651773 C238.520518,97.5651773 239.687218,102.74197 234.298301,101.393847 C228.909384,100.045724 207.353716,98.6976006 210.048174,116.2232 C212.742633,133.748799 231.603843,122.963815 234.298301,125.660061 C236.99276,128.356307 231.603843,135.096922 218.13155,136.445045 C204.659257,137.793168 189.839735,128.356307 173.672984,128.356307 C157.506233,128.356307 137.297794,129.70443 137.297794,129.70443 L133.256106,97.3494776 Z" id="Stroke-51" stroke="#042134" stroke-width="2.69624604" stroke-linecap="round" stroke-linejoin="round"></path>
                <path d="M391.924126,82.5201244 C391.924126,82.5201244 362.285082,67.6907711 331.298809,62.298279 C300.312535,56.9057869 281.330075,58.25391 280.717086,62.298279 C280.104096,66.3426481 310.001808,70.6310274 310.001808,70.6310274 C310.001808,70.6310274 274.715179,70.3870172 274.715179,74.4313862 C274.715179,78.4757553 309.74314,78.4757553 309.74314,78.4757553 C309.74314,78.4757553 276.062409,81.1720014 280.104096,86.5644934 C284.145784,91.9569855 333.993267,74.4313862 374.410145,110.830708 L391.924126,82.5201244 Z" id="Fill-53" fill="#FFFFFF"></path>
                <path d="M391.924126,82.5201244 C391.924126,82.5201244 362.285082,67.6907711 331.298809,62.298279 C300.312535,56.9057869 281.330075,58.25391 280.717086,62.298279 C280.104096,66.3426481 310.001808,70.6310274 310.001808,70.6310274 C310.001808,70.6310274 274.715179,70.3870172 274.715179,74.4313862 C274.715179,78.4757553 309.74314,78.4757553 309.74314,78.4757553 C309.74314,78.4757553 276.062409,81.1720014 280.104096,86.5644934 C284.145784,91.9569855 333.993267,74.4313862 374.410145,110.830708 L391.924126,82.5201244 Z" id="Stroke-55" stroke="#042134" stroke-width="2.69624604" stroke-linecap="round" stroke-linejoin="round"></path>
                <path d="M117.089355,265.864855 C117.089355,265.864855 159.527077,271.931409 157.506233,256.427994 C156.173823,246.203829 142.013096,250.361441 145.381169,259.12424 C148.478449,267.180624 167.599674,264.617842 178.04609,248.390485" id="Stroke-57" stroke="#FFFFFF" stroke-width="1.34812302" stroke-linecap="round" stroke-linejoin="round"></path>
                <path d="M253.833126,302.938239 C253.833126,302.938239 228.235769,297.545746 224.194082,317.767592 C222.173238,327.878514 236.207325,327.075033 234.971916,317.767592 C233.836202,309.211055 224.194082,296.197623 201.291184,304.286362" id="Stroke-59" stroke="#FFFFFF" stroke-width="1.34812302" stroke-linecap="round" stroke-linejoin="round"></path>
                <path d="M35.5819839,204.525258 C35.5819839,204.525258 31.9781456,237.636507 50.4015058,234.183964 C60.5299755,232.285807 54.1616227,220.879338 46.359818,226.095226 C39.1871694,230.8905 45.5474388,250.474683 63.6663252,257.102056" id="Stroke-61" stroke="#FFFFFF" stroke-width="1.34812302" stroke-linecap="round" stroke-linejoin="round"></path>
                <path d="M96.742151,122.212911 C96.742151,122.212911 66.5547848,120.341716 70.0979978,134.758543 C72.0460913,142.684159 80.1847033,137.33211 75.8951253,131.337007 C71.950438,125.824532 62.5265693,127.682246 57.1376522,135.770984" id="Stroke-63" stroke="#FFFFFF" stroke-width="1.34812302" stroke-linecap="round" stroke-linejoin="round"></path>
                <path d="M67.9154863,332.596945 C67.9154863,332.596945 73.3044034,319.115715 93.5128425,319.115715" id="Stroke-65" stroke="#FFFFFF" stroke-width="1.34812302" stroke-linecap="round" stroke-linejoin="round"></path>
                <path d="M147.567857,332.596945 C147.567857,332.596945 158.179982,342.033806 152.791065,350.122544 C147.402148,358.211282 128.540938,356.863159 140.666002,350.122544 C152.791065,343.381929 155.485524,366.300021 142.013231,371.692513" id="Stroke-67" stroke="#FFFFFF" stroke-width="1.34812302" stroke-linecap="round" stroke-linejoin="round"></path>
                <path d="M296.944462,374.388759 C296.944462,374.388759 291.555545,375.736882 287.513857,367.648144 C283.472169,359.559405 284.819399,351.470667 292.22916,352.144729 C299.638921,352.81879 292.902774,362.255652 288.861087,359.559405 C284.819399,356.863159 282.12494,344.295957 296.944462,337.772389" id="Stroke-69" stroke="#FFFFFF" stroke-width="1.34812302" stroke-linecap="round" stroke-linejoin="round"></path>
                <path d="M282.12494,243.620826 C282.12494,243.620826 288.741183,254.277738 304.96856,257.711407 C321.194589,261.146425 317.822474,249.114427 314.118941,248.390485 C310.416755,247.665195 302.333379,254.40581 307.722296,262.494548 C313.111213,270.583286 323.889048,275.975778 345.444716,269.235163" id="Stroke-71" stroke="#FFFFFF" stroke-width="1.34812302" stroke-linecap="round" stroke-linejoin="round"></path>
                <path d="M384.514365,232.835841 C384.514365,232.835841 396.639428,232.835841 402.028345,223.39898 C407.417262,213.962119 399.333887,205.873381 396.639428,209.91775 C393.94497,213.962119 398.429896,222.955448 407.417262,213.962119 C414.153409,207.221504 406.070033,192.392151 406.070033,192.392151" id="Stroke-73" stroke="#FFFFFF" stroke-width="1.34812302" stroke-linecap="round" stroke-linejoin="round"></path>
                <path d="M429.19711,125.660061 C429.19711,125.660061 428.973469,139.815353 435.709616,145.207845 C442.445762,150.600337 446.199143,147.904091 445.669682,145.207845 C445.140221,142.511599 435.445559,137.953595 434.230358,148.320661 C433.015157,158.689075 439.751304,164.081567 439.751304,164.081567" id="Stroke-75" stroke="#FFFFFF" stroke-width="1.34812302" stroke-linecap="round" stroke-linejoin="round"></path>
                <path d="M131.366213,101.91611 C129.543411,102.241007 127.72061,102.564557 125.897809,102.889454 C125.438404,102.97169 124.915679,103.098413 124.706858,103.516332 C124.355232,104.217356 125.190514,104.919728 125.920712,105.204182 C127.901139,105.975308 130.045928,106.193704 132.161078,106.405359 C129.849233,106.321776 127.530651,107.493294 126.226533,109.404933 C125.872212,109.925308 125.582557,110.585889 125.818323,111.169626 C126.110671,111.893568 127.017357,112.101179 127.790666,112.209029 C129.484133,112.44495 131.177601,112.680872 132.871068,112.916793 C130.999766,113.023295 129.143284,113.404814 127.382456,114.047869 C126.303325,114.441521 125.111027,115.130411 125.001902,116.27362 C124.918373,117.153944 125.562349,117.973603 126.350478,118.372647 C127.138607,118.77304 128.047987,118.841794 128.929075,118.903808 C130.54575,119.018398 132.161078,119.131641 133.777753,119.246231 C131.490158,119.638535 129.238938,120.243842 127.06451,121.054064 C125.776558,121.533996 124.254189,122.616539 124.712247,123.914781 C124.968221,124.638723 125.752308,125.009457 126.467687,125.288518 C128.987006,126.268604 132.196106,126.904918 134.110519,124.994628 C132.107189,125.903262 130.105206,126.811897 128.101876,127.720532 C127.173635,128.141147 126.072949,128.885311 126.304672,129.877529" id="Stroke-77" stroke="#042134" stroke-width="1.34812302" stroke-linecap="round" stroke-linejoin="round"></path>
                <path d="M169.554639,203.695488 C167.904283,204.101273 166.346886,204.883185 165.036032,205.964379 C164.129347,206.711239 163.327745,208.121376 164.156291,208.953168 C164.567196,209.364345 165.211172,209.41153 165.791828,209.392656 C168.091548,209.315813 170.365671,208.579738 172.272,207.293629 C171.33837,209.536905 168.037659,210.436103 167.819408,212.857332 C167.768213,213.430285 167.92045,214.019414 168.243785,214.49665 C169.372763,216.161582 172.001207,215.870387 173.651563,214.720438 C175.300572,213.570489 175.122737,213.163356 176.821594,212.086206 C175.415086,213.277947 175.297877,213.201104 174.667374,214.933442 C174.036871,216.66578 174.600012,218.980507 176.321771,219.637043 C178.171517,217.9802 178.672687,217.672828 180.522432,216.017333 C178.346657,217.618903 177.832015,218.119056 177.041192,220.70206 C177.93171,221.963903 180.114222,222.512589 181.435854,221.711804 C182.756138,220.912367 183.556393,219.483357 184.168035,218.065131 C183.418975,219.596599 182.655096,221.188733 182.614679,222.89276 C182.574263,224.598136 183.47017,226.450457 185.097623,226.957351 C187.134634,225.890986 188.767475,224.076412 189.614883,221.938289 C189.080033,223.615354 188.714934,225.346344 188.523627,227.097556 C188.460307,227.683989 188.429321,228.327044 188.762087,228.815064 C189.511146,229.913785 191.292183,229.289604 192.165188,228.2866 C193.172915,227.129911 193.742793,225.602487 193.741446,224.068323 C194.320755,225.181873 194.239921,226.507078 194.183337,227.760832 C194.126754,229.013239 194.134837,230.361362 194.843479,231.39672 C195.553469,232.432079 197.232117,232.871567 198.06201,231.931925 C198.375915,231.57602 198.510638,231.101481 198.637277,230.644467 C199.05896,229.115696 199.48199,227.585576 199.903673,226.056805 C199.689463,227.829587 199.675991,229.673819 200.301105,231.34684 C200.924872,233.01986 202.28288,234.498751 204.026194,234.88027 C204.565086,234.998905 205.155172,235.005645 205.644217,234.746806 C206.177719,234.466396 206.510485,233.919058 206.802834,233.391942 C207.819992,231.549058 208.655274,229.606413 209.292513,227.600406 C209.65896,229.304433 208.977262,231.040816 208.851969,232.778546 C208.726677,234.516277 209.575432,236.650355 211.31201,236.777079 C212.915213,236.894366 214.060358,235.214604 214.464527,233.65887 C214.870043,232.101788 214.948182,230.36271 215.984201,229.133221 C213.590175,232.368717 215.588116,237.793564 219.508553,238.700851 C222.037302,236.413086 223.41956,232.913358 223.137989,229.513392 C223.75502,232.789331 225.821669,235.763291 228.673754,237.482147 C231.201156,235.416823 232.60901,232.055952 232.309925,228.804279 C232.537607,231.244382 233.731252,233.580679 235.575609,235.193034 C235.886819,235.465355 236.250571,235.730936 236.66417,235.725543 C237.058909,235.720151 237.403799,235.4694 237.697495,235.206516 C239.925813,233.212642 240.69508,229.753358 239.525685,227.000491 C239.994521,229.002454 240.514552,231.101481 241.91567,232.605986 C243.316789,234.110492 245.904816,234.717147 247.423143,233.331277 C248.560205,232.293222 248.717831,230.551447 248.494191,229.02672 C248.269203,227.503341 247.742437,226.008272 247.79902,224.470064 C248.211273,226.671549 249.244597,228.751703 250.748105,230.409894 C251.179219,230.884433 251.736972,231.357624 252.374211,231.28887 C253.350952,231.183717 253.718746,229.96771 253.815746,228.988972 C254.051511,226.628409 254.059595,224.244927 253.841344,221.883016 C254.598486,224.317726 255.81234,227.167658 258.330312,227.554569 C260.561323,227.898341 262.607765,225.896378 263.145309,223.702982 C263.682853,221.508238 263.112975,219.212384 262.545792,217.025729 C262.78021,218.340149 263.038878,219.707145 263.837785,220.776207 C264.635345,221.846617 266.150977,222.507197 267.343275,221.90863 C268.63931,221.258835 268.939742,219.550763 268.897978,218.101531 C268.836005,216.014636 268.392767,213.939875 267.595207,212.010711 C268.748436,213.089209 270.009442,214.196018 271.564145,214.460251 C273.120194,214.723135 274.990149,213.739005 275.065594,212.163049 C275.101969,211.431018 274.759773,210.739431 274.396021,210.103117 C273.73992,208.954516 272.984124,207.863885 272.140759,206.846052 C272.997597,208.49211 274.750342,209.635318 276.601435,209.756649" id="Stroke-79" stroke="#042134" stroke-width="1.34812302" stroke-linecap="round" stroke-linejoin="round"></path>
                <path d="M378.194108,109.250977 C378.603666,111.495602 380.747107,113.295346 383.027967,113.307507 C383.728526,113.310176 384.505877,113.112002 384.873671,112.516131 C385.089227,112.169664 385.128297,111.740961 385.113478,111.332479 C385.023213,108.764305 383.115537,106.674714 381.322374,104.837223 C382.703284,106.135465 384.297057,107.207223 386.018816,107.999919 C386.863528,108.388179 387.891464,108.698247 388.683635,108.211574 C389.598404,107.648059 389.663071,106.258144 389.110707,105.336028 C388.556996,104.413912 387.580254,103.846352 386.650666,103.307103 C385.721078,102.769202 384.75242,102.17468 384.24182,101.228297 C386.33272,102.917495 388.73483,104.218434 391.290524,105.043485 C392.768434,103.780294 391.927763,101.271437 390.501047,99.9475803 C389.075679,98.6250716 387.162613,97.7568804 386.192608,96.0703785 C388.596065,98.1316586 391.760707,99.2829557 394.925348,99.2479045 C395.107224,97.5344401 394.187067,95.8519826 392.915282,94.6899005 C391.643498,93.5278185 390.047031,92.7957877 388.480204,92.0812825 C390.373061,94.5807026 393.331576,96.2442864 396.449065,96.5610953 C397.377306,94.9352589 397.230458,92.8308389 396.341286,91.1834325 C395.453462,89.5360262 393.90819,88.3146267 392.213376,87.5192342 C393.280381,88.7109749 394.401276,89.9094563 395.832034,90.6226134 C397.262791,91.3371186 399.085592,91.4759752 400.401835,90.5686884" id="Stroke-81" stroke="#042134" stroke-width="1.34812302" stroke-linecap="round" stroke-linejoin="round"></path>
            </g>
        </g>
    </g>
</svg>