<?xml version="1.0" encoding="UTF-8"?>
<svg width="300px" height="350px" viewBox="0 0 495 392" version="1.1" xmlns="http://www.w3.org/2000/svg" xmlns:xlink="http://www.w3.org/1999/xlink">
    <title>6B493A01-CF5B-4600-865B-AED87AD13729</title>
    <g id="Mocks---exit-panel" stroke="none" stroke-width="1" fill="none" fill-rule="evenodd">
        <g id="BH-Services-LP-2022--xl" transform="translate(-1218.000000, -2247.000000)">
            <g id="SEO-Services-Block" transform="translate(205.000000, 2250.000000)">
                <g id="Seo-services-illustration" transform="translate(1016.000000, 0.000000)">
                    <g id="Group-7" transform="translate(0.000000, 119.750314)">
                        <path d="M1.06073753,0 L1.06073753,265.189104 C313.624729,265.189104 469.906725,265.189104 469.906725,265.189104 C469.906725,265.189104 99.0965909,253.520617 1.06073753,102.711691" id="Fill-1" fill="#B9DFFB"></path>
                        <line x1="40.308026" y1="251.399106" x2="153.806941" y2="247.156083" id="Stroke-3" stroke="#042134" stroke-width="3.91328872" stroke-linecap="round" stroke-linejoin="round"></line>
                        <line x1="188.81128" y1="240.791548" x2="333.071584" y2="191.996785" id="Stroke-5" stroke="#042134" stroke-width="3.91328872" stroke-linecap="round" stroke-linejoin="round"></line>
                        <line x1="361.711497" y1="175.024694" x2="469.906725" y2="61.5238317" id="Stroke-7" stroke="#042134" stroke-width="3.91328872" stroke-linecap="round" stroke-linejoin="round"></line>
                        <path d="M21.7451193,257.76364 C17.3582401,257.76364 13.7895879,254.194926 13.7895879,249.807972 C13.7895879,245.421018 17.3582401,241.852304 21.7451193,241.852304 C26.1319985,241.852304 29.7006508,245.421018 29.7006508,249.807972 C29.7006508,254.194926 26.1319985,257.76364 21.7451193,257.76364" id="Fill-9" fill="#042134"></path>
                        <path d="M22.2754881,239.730793 C17.0032285,239.730793 12.7288503,244.005244 12.7288503,249.277594 C12.7288503,254.549944 17.0032285,258.824396 22.2754881,258.824396 C27.5477476,258.824396 31.8221258,254.549944 31.8221258,249.277594 C31.8221258,244.005244 27.5477476,239.730793 22.2754881,239.730793 M22.2754881,242.602443 C25.9568806,242.602443 28.9505247,245.597574 28.9505247,249.277594 C28.9505247,252.95905 25.9568806,255.952745 22.2754881,255.952745 C18.5955313,255.952745 15.6004514,252.95905 15.6004514,249.277594 C15.6004514,245.597574 18.5955313,242.602443 22.2754881,242.602443" id="Fill-11" fill="#042134"></path>
                        <path d="M171.308406,252.459861 C166.922547,252.459861 163.353579,248.891148 163.353579,244.504193 C163.353579,240.117239 166.922547,236.548526 171.308406,236.548526 C175.695674,236.548526 179.264642,240.117239 179.264642,244.504193 C179.264642,248.891148 175.695674,252.459861 171.308406,252.459861" id="Fill-13" fill="#042134"></path>
                        <path d="M171.839479,234.427014 C166.56722,234.427014 162.292842,238.701466 162.292842,243.973816 C162.292842,249.246166 166.56722,253.520617 171.839479,253.520617 C177.111739,253.520617 181.386117,249.246166 181.386117,243.973816 C181.386117,238.701466 177.111739,234.427014 171.839479,234.427014 M171.839479,237.298664 C175.519436,237.298664 178.514516,240.293796 178.514516,243.973816 C178.514516,247.655271 175.519436,250.648967 171.839479,250.648967 C168.159523,250.648967 165.164443,247.655271 165.164443,243.973816 C165.164443,240.293796 168.159523,237.298664 171.839479,237.298664" id="Fill-15" fill="#042134"></path>
                        <path d="M347.390836,193.057541 C343.004977,193.057541 339.436009,189.488828 339.436009,185.101873 C339.436009,180.714919 343.004977,177.146205 347.390836,177.146205 C351.778103,177.146205 355.347072,180.714919 355.347072,185.101873 C355.347072,189.488828 351.778103,193.057541 347.390836,193.057541" id="Fill-17" fill="#042134"></path>
                        <path d="M347.921909,175.024694 C342.649649,175.024694 338.375271,179.299145 338.375271,184.571495 C338.375271,189.843845 342.649649,194.118297 347.921909,194.118297 C353.194168,194.118297 357.468547,189.843845 357.468547,184.571495 C357.468547,179.299145 353.194168,175.024694 347.921909,175.024694 M347.921909,177.896344 C351.601866,177.896344 354.596946,180.891475 354.596946,184.571495 C354.596946,188.252951 351.601866,191.246646 347.921909,191.246646 C344.241952,191.246646 341.246872,188.252951 341.246872,184.571495 C341.246872,180.891475 344.241952,177.896344 347.921909,177.896344" id="Fill-19" fill="#042134"></path>
                        <path d="M478.922289,56.2200531 C474.53643,56.2200531 470.967462,52.6513397 470.967462,48.2643852 C470.967462,43.8774308 474.53643,40.3087174 478.922289,40.3087174 C483.309557,40.3087174 486.878525,43.8774308 486.878525,48.2643852 C486.878525,52.6513397 483.309557,56.2200531 478.922289,56.2200531" id="Fill-21" fill="#042134"></path>
                        <path d="M479.453362,39.2479616 C474.181103,39.2479616 469.906725,43.5224131 469.906725,48.7947631 C469.906725,54.0671131 474.181103,58.3415646 479.453362,58.3415646 C484.725622,58.3415646 489,54.0671131 489,48.7947631 C489,43.5224131 484.725622,39.2479616 479.453362,39.2479616 M479.453362,42.1196119 C483.133319,42.1196119 486.128399,45.1147432 486.128399,48.7947631 C486.128399,52.4762188 483.133319,55.4699143 479.453362,55.4699143 C475.773405,55.4699143 472.778326,52.4762188 472.778326,48.7947631 C472.778326,45.1147432 475.773405,42.1196119 479.453362,42.1196119" id="Fill-23" fill="#042134"></path>
                        <line x1="1.38920455" y1="85.2832588" x2="0.530368764" y2="265.18893" id="Stroke-25" stroke="#042134" stroke-width="5.2177183" stroke-linecap="round" stroke-linejoin="round"></line>
                        <line x1="480.5141" y1="265.719308" x2="1.06073753" y2="265.719308" id="Stroke-27" stroke="#042134" stroke-width="5.2177183" stroke-linecap="round" stroke-linejoin="round"></line>
                    </g>
                    <g id="Group-8" transform="translate(19.932556, 0.000000)">
                        <path d="M323.906052,115.420254 C323.906052,160.438066 285.674008,196.931734 238.511375,196.931734 C191.348742,196.931734 153.116698,160.438066 153.116698,115.420254 C153.116698,70.4024427 191.348742,33.9087753 238.511375,33.9087753 C285.674008,33.9087753 323.906052,70.4024427 323.906052,115.420254" id="Fill-29" fill="#6FA7FC"></path>
                        <path d="M293.326675,153.893673 L149.79843,153.893673 C141.550999,153.893673 134.86414,147.204515 134.86414,138.954249 L134.86414,98.4071786 C134.86414,90.1569127 141.550999,83.4677547 149.79843,83.4677547 L293.326675,83.4677547 C301.575409,83.4677547 308.260965,90.1569127 308.260965,98.4071786 L308.260965,138.954249 C308.260965,147.204515 301.575409,153.893673 293.326675,153.893673" id="Fill-31" fill="#FFFFFF"></path>
                        <path d="M174.273848,83.4677547 L293.327066,83.4677547 C301.574497,83.4677547 308.261356,90.1569127 308.261356,98.4071786 L308.261356,138.954249 C308.261356,147.204515 301.574497,153.893673 293.327066,153.893673 L181.358347,153.893673" id="Stroke-33" stroke="#042134" stroke-width="3.91328872" stroke-linecap="round" stroke-linejoin="round"></path>
                        <path d="M14.934812,146.068571 L151.219502,146.068571 C159.468237,146.068571 166.153792,139.379413 166.153792,131.129147 L166.153792,111.449015 C166.153792,103.198749 159.468237,96.5095913 151.219502,96.5095913 L14.934812,96.5095913 C6.68607729,96.5095913 0.000521494212,103.198749 0.000521494212,111.449015 L0.000521494212,131.129147 C0.000521494212,139.379413 6.68607729,146.068571 14.934812,146.068571" id="Fill-35" fill="#FFFFFF"></path>
                        <path d="M120.362168,96.5095913 L10.5094121,96.5095913 C4.70518153,96.5095913 0,101.21639 0,107.022616 L0,135.555546 C0,141.361772 4.70518153,146.068571 10.5094121,146.068571 L119.28789,146.068571" id="Stroke-37" stroke="#042134" stroke-width="3.91328872" stroke-linecap="round" stroke-linejoin="round"></path>
                        <path d="M238.511375,207.365203 C191.348742,207.365203 153.116698,170.871536 153.116698,125.853724 C153.116698,125.21337 153.151899,124.580841 153.167543,123.943095 C153.151899,123.275353 153.116698,122.612827 153.116698,121.941173 C153.116698,74.7623287 191.348742,36.5171427 238.511375,36.5171427 C285.674008,36.5171427 323.906052,74.7623287 323.906052,121.941173 C323.906052,122.612827 323.870851,123.275353 323.855207,123.943095 C323.870851,124.580841 323.906052,125.21337 323.906052,125.853724 C323.906052,170.871536 285.674008,207.365203 238.511375,207.365203 M461.978163,226.218482 L341.582099,164.428868 C346.983475,151.332256 349.980763,136.988844 349.980763,121.941173 C349.980763,60.3576201 300.073767,10.4334693 238.511375,10.4334693 C176.948983,10.4334693 127.041987,60.3576201 127.041987,121.941173 C127.041987,183.524726 176.948983,233.448876 238.511375,233.448876 C275.699127,233.448876 308.610627,215.215084 328.860247,187.21687 L450.076362,249.42643 C456.481614,252.714277 464.340532,250.184161 467.62725,243.776707 L467.62725,243.775403 C470.913967,237.367948 468.38472,229.506329 461.978163,226.218482" id="Fill-39" fill="#042134"></path>
                        <path d="M238.511375,207.365203 C191.348742,207.365203 153.116698,170.871536 153.116698,125.853724 C153.116698,125.21337 153.151899,124.580841 153.167543,123.943095 C153.151899,123.275353 153.116698,122.612827 153.116698,121.941173 C153.116698,74.7623287 191.348742,36.5171427 238.511375,36.5171427 C285.674008,36.5171427 323.906052,74.7623287 323.906052,121.941173 C323.906052,122.612827 323.870851,123.275353 323.855207,123.943095 C323.870851,124.580841 323.906052,125.21337 323.906052,125.853724 C323.906052,170.871536 285.674008,207.365203 238.511375,207.365203 Z M461.978163,226.218482 L341.582099,164.428868 C346.983475,151.332256 349.980763,136.988844 349.980763,121.941173 C349.980763,60.3576201 300.073767,10.4334693 238.511375,10.4334693 C176.948983,10.4334693 127.041987,60.3576201 127.041987,121.941173 C127.041987,183.524726 176.948983,233.448876 238.511375,233.448876 C275.699127,233.448876 308.610627,215.215084 328.860247,187.21687 L450.076362,249.42643 C456.481614,252.714277 464.340532,250.184161 467.62725,243.776707 L467.62725,243.775403 C470.913967,237.367948 468.38472,229.506329 461.978163,226.218482 Z" id="Stroke-41" stroke="#042134" stroke-width="5.2177183"></path>
                        <path d="M238.511375,196.931734 C191.348742,196.931734 153.116698,160.438066 153.116698,115.420254 C153.116698,114.7799 153.151899,114.147371 153.167543,113.509625 C153.151899,112.841883 153.116698,112.179358 153.116698,111.507703 C153.116698,64.3288594 191.348742,26.0836733 238.511375,26.0836733 C285.674008,26.0836733 323.906052,64.3288594 323.906052,111.507703 C323.906052,112.179358 323.870851,112.841883 323.855207,113.509625 C323.870851,114.147371 323.906052,114.7799 323.906052,115.420254 C323.906052,160.438066 285.674008,196.931734 238.511375,196.931734 M461.978163,215.785013 L341.582099,153.995399 C346.983475,140.898787 349.980763,126.555375 349.980763,111.507703 C349.980763,49.9241508 300.073767,0 238.511375,0 C176.948983,0 127.041987,49.9241508 127.041987,111.507703 C127.041987,173.091256 176.948983,223.015407 238.511375,223.015407 C275.699127,223.015407 308.610627,204.781615 328.860247,176.7834 L450.076362,238.992961 C456.481614,242.280808 464.340532,239.750692 467.62725,233.343237 L467.62725,233.341933 C470.913967,226.934479 468.38472,219.07286 461.978163,215.785013" id="Fill-43" fill="#FFFFFF"></path>
                        <path d="M238.511375,196.931734 C191.348742,196.931734 153.116698,160.438066 153.116698,115.420254 C153.116698,114.7799 153.151899,114.147371 153.167543,113.509625 C153.151899,112.841883 153.116698,112.179358 153.116698,111.507703 C153.116698,64.3288594 191.348742,26.0836733 238.511375,26.0836733 C285.674008,26.0836733 323.906052,64.3288594 323.906052,111.507703 C323.906052,112.179358 323.870851,112.841883 323.855207,113.509625 C323.870851,114.147371 323.906052,114.7799 323.906052,115.420254 C323.906052,160.438066 285.674008,196.931734 238.511375,196.931734 Z M461.978163,215.785013 L341.582099,153.995399 C346.983475,140.898787 349.980763,126.555375 349.980763,111.507703 C349.980763,49.9241508 300.073767,0 238.511375,0 C176.948983,0 127.041987,49.9241508 127.041987,111.507703 C127.041987,173.091256 176.948983,223.015407 238.511375,223.015407 C275.699127,223.015407 308.610627,204.781615 328.860247,176.7834 L450.076362,238.992961 C456.481614,242.280808 464.340532,239.750692 467.62725,233.343237 L467.62725,233.341933 C470.913967,226.934479 468.38472,219.07286 461.978163,215.785013 Z" id="Stroke-45" stroke="#042134" stroke-width="5.2177183"></path>
                        <line x1="20.1356738" y1="125.201632" x2="114.004632" y2="125.201632" id="Stroke-47" stroke="#042134" stroke-width="3.91328872" stroke-linecap="round" stroke-linejoin="round"></line>
                        <path d="M177.28287,125.114382 C179.500524,125.114382 181.36617,126.980669 181.36617,129.199085 C181.36617,131.417502 179.500524,133.283789 177.28287,133.283789 C175.065216,133.283789 173.19957,131.417502 173.19957,129.199085 C173.19957,126.980669 175.065216,125.114382 177.28287,125.114382" id="Fill-49" fill="#6FA7FC"></path>
                        <path d="M198.053593,107.767044 C203.044293,107.767044 206.067656,109.935901 207.68168,112.205181 L203.497993,116.087736 C202.337668,114.423597 200.575018,113.465022 198.35606,113.465022 C194.474839,113.465022 191.752639,116.289884 191.752639,120.525873 C191.752639,124.760557 194.474839,127.634978 198.35606,127.634978 C200.575018,127.634978 202.337668,126.626844 203.497993,125.013569 L207.68168,128.896123 C206.067656,131.165403 203.044293,133.33426 198.053593,133.33426 C190.542773,133.33426 185.149219,128.039275 185.149219,120.525873 C185.149219,113.06203 190.542773,107.767044 198.053593,107.767044" id="Fill-51" fill="#6FA7FC"></path>
                        <path d="M229.411953,120.525612 C229.411953,116.743479 227.143453,113.464762 223.160541,113.464762 C219.178933,113.464762 216.959975,116.743479 216.959975,120.525612 C216.959975,124.357303 219.178933,127.636021 223.160541,127.636021 C227.143453,127.636021 229.411953,124.357303 229.411953,120.525612 M210.307012,120.525612 C210.307012,113.617351 215.146479,107.766783 223.160541,107.766783 C231.226753,107.766783 236.066219,113.617351 236.066219,120.525612 C236.066219,127.483432 231.226753,133.334 223.160541,133.334 C215.146479,133.334 210.307012,127.483432 210.307012,120.525612" id="Fill-53" fill="#6FA7FC"></path>
                        <path d="M271.004245,132.728728 L271.004245,117.34849 C271.004245,115.07921 269.996458,113.464631 267.374646,113.464631 C265.107449,113.464631 263.241804,114.978788 262.334404,116.289493 L262.334404,132.728728 L255.880913,132.728728 L255.880913,117.34849 C255.880913,115.07921 254.873126,113.464631 252.251313,113.464631 C250.033659,113.464631 248.168014,114.978788 247.211072,116.340356 L247.211072,132.728728 L240.808427,132.728728 L240.808427,108.371794 L247.211072,108.371794 L247.211072,111.548785 C248.218859,110.086795 251.445605,107.766653 255.175592,107.766653 C258.754346,107.766653 261.02415,109.430791 261.930246,112.20479 C263.342192,109.986373 266.568937,107.766653 270.298924,107.766653 C274.785078,107.766653 277.456432,110.137659 277.456432,115.130074 L277.456432,132.728728 L271.004245,132.728728 Z" id="Fill-55" fill="#6FA7FC"></path>
                    </g>
                </g>
            </g>
        </g>
    </g>
</svg>