<?xml version="1.0" encoding="UTF-8"?>
<svg width="300px" height="400px" viewBox="0 0 487 462" version="1.1" xmlns="http://www.w3.org/2000/svg" xmlns:xlink="http://www.w3.org/1999/xlink">
    <title>5626E486-0C46-4ED3-87CF-D6298861F2AB</title>
    <g id="Mocks---exit-panel" stroke="none" stroke-width="1" fill="none" fill-rule="evenodd">
        <g id="BH-Services-LP-2022--xl" transform="translate(-1225.000000, -3356.000000)">
            <g id="Website-Migration-Block" transform="translate(205.000000, 3358.000000)">
                <g id="Website-Migration-Illustration" transform="translate(1022.000000, 0.000000)">
                    <path d="M121.776116,271.439219 C121.776116,271.439219 -55.0432513,221.338751 28.3997857,109.466362 C111.842823,-2.40722968 317.907743,39.7192897 317.907743,39.7192897 L337.188671,9.62891871 L370.930295,89.0674981 L288.999606,105.198344 L301.03693,80.6421942 C301.03693,80.6421942 104.534146,66.2854764 61.2303862,154.062699 C20.2584138,237.112123 121.776116,271.439219 121.776116,271.439219" id="Fill-1" fill="#042134"></path>
                    <path d="M115.750826,261.8103 C115.750826,261.8103 -61.0685413,211.709832 22.3744956,99.8374437 C105.817533,-12.0361484 311.882453,30.090371 311.882453,30.090371 L331.163381,0 L364.905005,79.4385794 L282.974316,95.5694254 L295.01164,71.0132755 C295.01164,71.0132755 98.5088558,56.6565577 55.2050961,144.433781 C14.2331237,227.483205 115.750826,261.8103 115.750826,261.8103" id="Fill-1" fill="#6FA7FC"></path>
                    <path d="M115.750826,261.8103 C115.750826,261.8103 -61.0685413,211.709832 22.3744956,99.8374437 C105.817533,-12.0361484 311.882453,30.090371 311.882453,30.090371 L331.163381,0 L364.905005,79.4385794 L282.974316,95.5694254 L295.01164,71.0132755 C295.01164,71.0132755 98.5088558,56.6565577 55.2050961,144.433781 C14.2331237,227.483205 115.750826,261.8103 115.750826,261.8103 Z" id="Stroke-3" stroke="#042134" stroke-width="3.61184473" stroke-linecap="round" stroke-linejoin="round"></path>
                    <path d="M460.625053,358.162556 C377.182016,470.036148 171.117096,427.909629 171.117096,427.909629 L151.836167,458 L118.094543,378.561421 L203.427111,361.084933 L187.987908,386.986724 C187.987908,386.986724 384.490692,401.343442 427.794452,313.566219 C468.766424,230.516795 367.248722,196.1897 367.248722,196.1897 C367.248722,196.1897 544.069295,246.290168 460.625053,358.162556 Z" id="Fill-5" stroke="#042134" stroke-width="3.61184473" fill="#042134" stroke-linecap="round" stroke-linejoin="round"></path>
                    <path d="M455.804821,344.922793 C372.361784,456.796385 166.296864,414.669866 166.296864,414.669866 L147.015935,444.760237 L113.274311,365.321657 L198.606879,347.84517 L183.167676,373.746961 C183.167676,373.746961 379.67046,388.103679 422.97422,300.326456 C463.946192,217.277032 362.42849,182.949937 362.42849,182.949937 C362.42849,182.949937 539.249063,233.050405 455.804821,344.922793 Z" id="Fill-5" fill="#6FA7FC"></path>
                    <path d="M362.42849,182.949937 C362.42849,182.949937 539.249063,233.050405 455.804821,344.922793 C372.361784,456.796385 166.296864,414.669866 166.296864,414.669866 L147.015935,444.760237 L113.274311,365.321657 L198.606879,347.84517 L183.167676,373.746961 C183.167676,373.746961 379.67046,388.103679 422.97422,300.326456 C463.946192,217.277032 362.42849,182.949937 362.42849,182.949937 Z" id="Stroke-7" stroke="#042134" stroke-width="3.61184473" stroke-linecap="round" stroke-linejoin="round"></path>
                    <line x1="410.696607" y1="197.393315" x2="443.233173" y2="168.506559" id="Stroke-9" stroke="#042134" stroke-width="3.61184473" stroke-linecap="round" stroke-linejoin="round"></line>
                    <path d="M453.476166,164.895714 C453.476166,169.216692 449.969448,172.719211 445.643289,172.719211 C441.317131,172.719211 437.810412,169.216692 437.810412,164.895714 C437.810412,160.574737 441.317131,157.072218 445.643289,157.072218 C449.969448,157.072218 453.476166,160.574737 453.476166,164.895714" id="Fill-11" fill="#FFFFFF"></path>
                    <path d="M453.476166,164.895714 C453.476166,169.216692 449.969448,172.719211 445.643289,172.719211 C441.317131,172.719211 437.810412,169.216692 437.810412,164.895714 C437.810412,160.574737 441.317131,157.072218 445.643289,157.072218 C449.969448,157.072218 453.476166,160.574737 453.476166,164.895714 Z" id="Stroke-13" stroke="#042134" stroke-width="2.40789648" stroke-linecap="round" stroke-linejoin="round"></path>
                    <line x1="400.035097" y1="209.229904" x2="443.08218" y2="202.754456" id="Stroke-15" stroke="#042134" stroke-width="3.61184473" stroke-linecap="round" stroke-linejoin="round"></line>
                    <path d="M453.638488,205.311175 C451.277779,208.931648 446.426216,209.955925 442.800196,207.598043 C439.175381,205.241365 438.149877,200.394408 440.510586,196.773935 C442.871294,193.152258 447.722858,192.127982 451.348878,194.485863 C454.973692,196.843745 455.999196,201.690701 453.638488,205.311175" id="Fill-17" fill="#DFDFDF"></path>
                    <path d="M453.638488,205.311175 C451.277779,208.931648 446.426216,209.955925 442.800196,207.598043 C439.175381,205.241365 438.149877,200.394408 440.510586,196.773935 C442.871294,193.152258 447.722858,192.127982 451.348878,194.485863 C454.973692,196.843745 455.999196,201.690701 453.638488,205.311175 Z" id="Stroke-19" stroke="#042134" stroke-width="2.40789648" stroke-linecap="round" stroke-linejoin="round"></path>
                    <g id="Group-9" transform="translate(8.041745, 223.044094)">
                        <line x1="56.3073317" y1="16.505411" x2="12.8131729" y2="14.6843418" id="Stroke-21" stroke="#042134" stroke-width="3.61184473" stroke-linecap="round" stroke-linejoin="round"></line>
                        <path d="M2.20155259,9.20885713 C5.20817233,6.10232723 10.166986,6.01927781 13.2772408,9.02229683 C16.3874955,12.0253159 16.4706445,16.9781909 13.4640248,20.0847208 C10.457405,23.1912507 5.49859131,23.2743001 2.38833658,20.2712811 C-0.721918147,17.2682621 -0.80506715,12.315387 2.20155259,9.20885713" id="Fill-23" fill="#FFFFFF"></path>
                        <path d="M2.20155259,9.20885713 C5.20817233,6.10232723 10.166986,6.01927781 13.2772408,9.02229683 C16.3874955,12.0253159 16.4706445,16.9781909 13.4640248,20.0847208 C10.457405,23.1912507 5.49859131,23.2743001 2.38833658,20.2712811 C-0.721918147,17.2682621 -0.80506715,12.315387 2.20155259,9.20885713 Z" id="Stroke-25" stroke="#042134" stroke-width="2.40789648" stroke-linecap="round" stroke-linejoin="round"></path>
                        <line x1="65.5679616" y1="0" x2="43.807024" y2="37.6587011" id="Stroke-27" stroke="#042134" stroke-width="3.61184473" stroke-linecap="round" stroke-linejoin="round"></line>
                        <path d="M34.034124,44.5159355 C32.6699983,40.4152198 34.8933304,35.9871208 38.998963,34.6246288 C43.1033906,33.2633404 47.5380041,35.4828062 48.9009247,39.5835219 C50.2650504,43.6842377 48.0417183,48.1123367 43.9372908,49.4748287 C39.8316581,50.8361171 35.3982497,48.6166513 34.034124,44.5159355" id="Fill-29" fill="#DFDFDF"></path>
                        <path d="M34.034124,44.5159355 C32.6699983,40.4152198 34.8933304,35.9871208 38.998963,34.6246288 C43.1033906,33.2633404 47.5380041,35.4828062 48.9009247,39.5835219 C50.2650504,43.6842377 48.0417183,48.1123367 43.9372908,49.4748287 C39.8316581,50.8361171 35.3982497,48.6166513 34.034124,44.5159355 Z" id="Stroke-31" stroke="#042134" stroke-width="2.40789648" stroke-linecap="round" stroke-linejoin="round"></path>
                    </g>
                    <path d="M62.5050767,345.655966 L418.297775,345.655966 L418.297775,108.100759 C418.297775,106.432518 416.945399,105.080142 415.277159,105.080142 L65.5256934,105.080142 C63.8574529,105.080142 62.5050767,106.432518 62.5050767,108.100759 L62.5050767,345.655966 L62.5050767,345.655966 Z" id="Fill-33" fill="#042134"></path>
                    <polygon id="Fill-33" fill="#FFFFFF" points="64.8449577 340.622999 410.918338 340.622999 410.918338 108.325336 64.8449577 108.325336"></polygon>
                    <polygon id="Stroke-35" stroke="#042134" stroke-width="3.61184473" stroke-linecap="round" stroke-linejoin="round" points="64.8449577 340.622999 410.918338 340.622999 410.918338 108.325336 64.8449577 108.325336"></polygon>
                    <polygon id="Fill-36" fill="#042134" points="64.8449577 130.625911 410.918338 130.625911 410.918338 108.325336 64.8449577 108.325336"></polygon>
                    <polygon id="Stroke-37" stroke="#042134" stroke-width="3.61184473" stroke-linecap="round" stroke-linejoin="round" points="64.8449577 130.625911 410.918338 130.625911 410.918338 108.325336 64.8449577 108.325336"></polygon>
                    <polygon id="Fill-38" fill="#DFDFDF" points="254.627134 316.550703 379.287975 316.550703 379.287975 182.660588 254.627134 182.660588"></polygon>
                    <polygon id="Stroke-39" stroke="#042134" stroke-width="2.40789648" stroke-linecap="round" stroke-linejoin="round" points="254.627134 316.550703 379.287975 316.550703 379.287975 182.660588 254.627134 182.660588"></polygon>
                    <path d="M152.881435,317.562221 L104.761058,317.562221 C101.212162,317.562221 98.3356889,314.689192 98.3356889,311.144546 L98.3356889,286.812269 C98.3356889,283.267623 101.212162,280.394594 104.761058,280.394594 L152.881435,280.394594 C156.430331,280.394594 159.306804,283.267623 159.306804,286.812269 L159.306804,311.144546 C159.306804,314.689192 156.430331,317.562221 152.881435,317.562221" id="Fill-40" fill="#DFDFDF"></path>
                    <path d="M152.881435,317.562221 L104.761058,317.562221 C101.212162,317.562221 98.3356889,314.689192 98.3356889,311.144546 L98.3356889,286.812269 C98.3356889,283.267623 101.212162,280.394594 104.761058,280.394594 L152.881435,280.394594 C156.430331,280.394594 159.306804,283.267623 159.306804,286.812269 L159.306804,311.144546 C159.306804,314.689192 156.430331,317.562221 152.881435,317.562221 Z" id="Stroke-41" stroke="#042134" stroke-width="2.40789648" stroke-linecap="round" stroke-linejoin="round"></path>
                    <path d="M112.290502,172.130162 L112.290502,172.130162 C104.584156,172.130162 98.3359299,165.889419 98.3359299,158.192302 L98.3359299,158.192302 C98.3359299,150.495185 104.584156,144.254442 112.290502,144.254442 L112.290502,144.254442 C119.996848,144.254442 126.245073,150.495185 126.245073,158.192302 L126.245073,158.192302 C126.245073,165.889419 119.996848,172.130162 112.290502,172.130162" id="Fill-42" fill="#DFDFDF"></path>
                    <path d="M112.290502,172.130162 L112.290502,172.130162 C104.584156,172.130162 98.3359299,165.889419 98.3359299,158.192302 L98.3359299,158.192302 C98.3359299,150.495185 104.584156,144.254442 112.290502,144.254442 L112.290502,144.254442 C119.996848,144.254442 126.245073,150.495185 126.245073,158.192302 L126.245073,158.192302 C126.245073,165.889419 119.996848,172.130162 112.290502,172.130162 Z" id="Stroke-43" stroke="#042134" stroke-width="2.40789648" stroke-linecap="round" stroke-linejoin="round"></path>
                    <path d="M222.885785,317.562221 L177.021277,317.562221 C172.850572,317.562221 169.467974,314.184877 169.467974,310.017963 L169.467974,287.938852 C169.467974,283.771938 172.850572,280.394594 177.021277,280.394594 L222.885785,280.394594 C227.057696,280.394594 230.439089,283.771938 230.439089,287.938852 L230.439089,310.017963 C230.439089,314.184877 227.057696,317.562221 222.885785,317.562221" id="Fill-44" fill="#DFDFDF"></path>
                    <path d="M222.885785,317.562221 L177.021277,317.562221 C172.850572,317.562221 169.467974,314.184877 169.467974,310.017963 L169.467974,287.938852 C169.467974,283.771938 172.850572,280.394594 177.021277,280.394594 L222.885785,280.394594 C227.057696,280.394594 230.439089,283.771938 230.439089,287.938852 L230.439089,310.017963 C230.439089,314.184877 227.057696,317.562221 222.885785,317.562221 Z" id="Stroke-45" stroke="#042134" stroke-width="2.40789648" stroke-linecap="round" stroke-linejoin="round"></path>
                    <line x1="193.227018" y1="158.192302" x2="219.275552" y2="158.192302" id="Stroke-46" stroke="#042134" stroke-width="2.40789648" stroke-linecap="round" stroke-linejoin="round"></line>
                    <line x1="232.299819" y1="158.502112" x2="258.348353" y2="158.502112" id="Stroke-47" stroke="#042134" stroke-width="2.40789648" stroke-linecap="round" stroke-linejoin="round"></line>
                    <line x1="269.51201" y1="158.502112" x2="295.560544" y2="158.502112" id="Stroke-48" stroke="#042134" stroke-width="2.40789648" stroke-linecap="round" stroke-linejoin="round"></line>
                    <line x1="353.239441" y1="158.192302" x2="379.287975" y2="158.192302" id="Stroke-49" stroke="#042134" stroke-width="2.40789648" stroke-linecap="round" stroke-linejoin="round"></line>
                    <line x1="101.599227" y1="187.162589" x2="235.360666" y2="187.162589" id="Stroke-50" stroke="#042134" stroke-width="2.40789648" stroke-linecap="round" stroke-linejoin="round"></line>
                    <line x1="101.599227" y1="205.216812" x2="235.360666" y2="205.216812" id="Stroke-51" stroke="#042134" stroke-width="2.40789648" stroke-linecap="round" stroke-linejoin="round"></line>
                    <line x1="101.599227" y1="223.271034" x2="235.360666" y2="223.271034" id="Stroke-52" stroke="#042134" stroke-width="2.40789648" stroke-linecap="round" stroke-linejoin="round"></line>
                    <line x1="101.599227" y1="241.325257" x2="235.360666" y2="241.325257" id="Stroke-53" stroke="#042134" stroke-width="2.40789648" stroke-linecap="round" stroke-linejoin="round"></line>
                </g>
            </g>
        </g>
    </g>
</svg>